<svg version="1.1" xmlns="http://www.w3.org/2000/svg" viewBox="-244.73599548339843 -1085.4400512695313 6516.73642578125 1397.7600463867188"><desc>Created with Snap</desc><defs></defs><g><rect x="-244.73599548339843" y="-1085.4400512695313" width="6516.73642578125" height="1397.7600463867188" fill="#f1dabf" style=""></rect><g><g transform="matrix(1.024,0,0,-1.024,0,0)"><path d="M338 -5Q257 -5 194 30Q132 66 96 129Q61 192 61 273Q61 355 94 417Q128 480 187 516Q246 552 323 552Q399 552 455 517Q512 483 543 422Q574 361 574 283Q574 267 564 257Q554 248 538 248L113 248L113 312L546 312L503 281Q504 339 482 385Q460 431 419 457Q379 483 323 483Q266 483 223 456Q180 429 156 381Q133 334 133 273Q133 212 159 165Q186 118 232 91Q278 64 338 64Q374 64 410 76Q447 89 469 108Q480 117 494 117Q508 118 518 110Q531 98 531 84Q532 70 520 60Q487 32 436 13Q385 -5 338 -5ZM1086 0Q1074 0 1066 4Q1059 8 1051 18L878 238L848 264L674 485Q663 498 663 512Q664 526 673 536Q682 547 699 547Q716 547 728 535L896 320L923 298L1109 60Q1122 44 1120 30Q1118 16 1107 8Q1097 0 1086 0ZM690 0Q674 0 664 10Q655 20 654 34Q654 48 665 61L849 291L892 234L717 12Q708 0 690 0ZM1105 484L924 260L875 310L1048 529Q1055 539 1063 543Q1072 547 1081 547Q1098 547 1107 536Q1116 526 1115 511Q1115 497 1105 484ZM1493 -5Q1416 -5 1355 31Q1294 68 1258 131Q1223 194 1223 273Q1223 353 1259 416Q1296 479 1359 515Q1422 552 1501 552Q1580 552 1642 515Q1705 479 1741 416Q1778 353 1779 273L1748 249Q1748 177 1714 119Q1681 62 1623 28Q1566 -5 1493 -5ZM1501 65Q1559 65 1604 92Q1650 119 1676 166Q1703 214 1703 273Q1703 333 1676 380Q1650 427 1604 454Q1559 482 1501 482Q1444 482 1398 454Q1352 427 1325 380Q1298 333 1298 273Q1298 214 1325 166Q1352 119 1398 92Q1444 65 1501 65ZM1740 0Q1723 0 1712 10Q1701 21 1701 38L1701 209L1720 288L1779 273L1779 38Q1779 21 1768 10Q1757 0 1740 0ZM2668 0Q2651 0 2640 10Q2629 21 2629 38L2629 326Q2629 397 2592 438Q2555 480 2497 480Q2435 480 2395 438Q2356 397 2357 328L2288 328Q2289 395 2317 446Q2345 497 2394 525Q2443 553 2505 553Q2564 553 2609 525Q2655 497 2680 446Q2706 395 2706 326L2706 38Q2706 21 2695 10Q2685 0 2668 0ZM1968 0Q1950 0 1939 10Q1929 21 1929 38L1929 508Q1929 525 1939 536Q1950 547 1968 547Q1985 547 1995 536Q2006 525 2006 508L2006 38Q2006 21 1995 10Q1985 0 1968 0ZM2319 0Q2302 0 2291 10Q2280 21 2280 38L2280 326Q2280 397 2243 438Q2206 480 2148 480Q2086 480 2046 439Q2006 399 2006 334L1951 334Q1953 398 1979 447Q2006 497 2052 525Q2098 553 2156 553Q2215 553 2260 525Q2306 497 2331 446Q2357 395 2357 326L2357 38Q2357 21 2346 10Q2336 0 2319 0ZM2931 0Q2913 0 2902 10Q2892 21 2892 39L2892 508Q2892 526 2902 536Q2913 547 2931 547Q2948 547 2958 536Q2969 526 2969 508L2969 39Q2969 21 2958 10Q2948 0 2931 0ZM2930 651Q2908 651 2892 667Q2876 683 2876 706Q2876 731 2892 745Q2909 760 2931 760Q2952 760 2968 745Q2985 731 2985 706Q2985 683 2969 667Q2953 651 2930 651ZM3634 0Q3617 0 3606 11Q3595 22 3595 38L3595 298Q3595 360 3571 400Q3548 440 3507 460Q3467 480 3416 480Q3367 480 3327 461Q3288 442 3265 409Q3242 376 3242 334L3187 334Q3189 397 3221 446Q3253 496 3306 524Q3359 553 3424 553Q3495 553 3551 523Q3607 494 3639 437Q3672 380 3672 298L3672 38Q3672 22 3661 11Q3650 0 3634 0ZM3204 0Q3186 0 3175 10Q3165 21 3165 38L3165 508Q3165 526 3175 536Q3186 547 3204 547Q3221 547 3231 536Q3242 526 3242 508L3242 38Q3242 21 3231 10Q3221 0 3204 0ZM4090 -5Q4009 -5 3946 30Q3884 66 3848 129Q3813 192 3813 273Q3813 355 3846 417Q3880 480 3939 516Q3998 552 4075 552Q4151 552 4207 517Q4264 483 4295 422Q4326 361 4326 283Q4326 267 4316 257Q4306 248 4290 248L3865 248L3865 312L4298 312L4255 281Q4256 339 4234 385Q4212 431 4171 457Q4131 483 4075 483Q4018 483 3975 456Q3932 429 3908 381Q3885 334 3885 273Q3885 212 3911 165Q3938 118 3984 91Q4030 64 4090 64Q4126 64 4162 76Q4199 89 4221 108Q4232 117 4246 117Q4260 118 4270 110Q4283 98 4283 84Q4284 70 4272 60Q4239 32 4188 13Q4137 -5 4090 -5ZM4643 0Q4619 0 4607 26L4385 497Q4379 510 4384 523Q4389 536 4404 543Q4418 550 4431 545Q4444 540 4451 527L4664 66L4623 66L4833 527Q4839 541 4853 545Q4868 550 4882 544Q4896 537 4901 523Q4906 510 4900 498L4681 26Q4669 0 4643 0ZM5064 0Q5046 0 5035 10Q5025 21 5025 39L5025 508Q5025 526 5035 536Q5046 547 5064 547Q5081 547 5091 536Q5102 526 5102 508L5102 39Q5102 21 5091 10Q5081 0 5064 0ZM5063 651Q5041 651 5025 667Q5009 683 5009 706Q5009 731 5025 745Q5042 760 5064 760Q5085 760 5101 745Q5118 731 5118 706Q5118 683 5102 667Q5086 651 5063 651ZM5547 -5Q5467 -5 5404 31Q5341 67 5305 130Q5269 193 5269 273Q5269 354 5305 417Q5341 480 5404 516Q5467 552 5547 552Q5627 552 5689 516Q5752 480 5788 417Q5824 354 5825 273Q5825 193 5788 130Q5752 67 5689 31Q5627 -5 5547 -5ZM5547 65Q5605 65 5651 92Q5697 119 5723 166Q5749 213 5749 273Q5749 333 5723 380Q5697 428 5651 455Q5605 482 5547 482Q5489 482 5443 455Q5397 428 5370 380Q5344 333 5344 273Q5344 213 5370 166Q5397 119 5443 92Q5489 65 5547 65Z" fill="#292929" style=""></path></g></g></g></svg>